<svg xmlns="http://www.w3.org/2000/svg" viewBox="0 0 64 64" role="img" aria-label="Bola de futsal">
  <circle cx="32" cy="32" r="30" fill="#f5c518" stroke="#1a1a1a" stroke-width="2"/>
  <path fill="#fff" d="M32 6 L38 18 L52 18 L41 27 L45 41 L32 33 L19 41 L23 27 L12 18 L26 18 Z"/>
  <path fill="#1a1a1a" d="M32 33 L45 41 L41 55 L32 48 L23 55 L19 41 Z"/>
  <path fill="#fff" opacity="0.85" d="M12 18 L23 27 L19 41 L8 34 L6 22 Z"/>
  <path fill="#fff" opacity="0.85" d="M52 18 L58 22 L56 34 L45 41 L41 27 Z"/>
  <path fill="#1a1a1a" d="M26 18 L32 6 L38 18 L32 20 Z"/>
  <ellipse cx="24" cy="22" rx="6" ry="4" fill="#fff" opacity="0.25"/>
</svg>
